<!DOCTYPE svg PUBLIC "-//W3C//DTD SVG 1.1//EN" "http://www.w3.org/Graphics/SVG/1.1/DTD/svg11.dtd">
<!-- Uploaded to: SVG Repo, www.svgrepo.com, Transformed by: SVG Repo Mixer Tools -->
<svg version="1.1" id="Layer_1" xmlns="http://www.w3.org/2000/svg" xmlns:xlink="http://www.w3.org/1999/xlink" viewBox="0 0 512 512" xml:space="preserve" width="800px" height="800px" fill="#000000">
<g id="SVGRepo_bgCarrier" stroke-width="0"/>
<g id="SVGRepo_tracerCarrier" stroke-linecap="round" stroke-linejoin="round"/>
<g id="SVGRepo_iconCarrier"> <rect x="220.656" y="382.768" style="fill:#FFFFFF;" width="74.56" height="16"/> <rect x="69.824" y="58.512" style="fill:#333333;" width="372.352" height="253.792"/> <rect x="85.824" y="74.512" style="fill:#FFFFFF;" width="340.352" height="221.792"/> <polygon style="fill:#D6D6D6;" points="442.176,312.304 69.824,312.304 0,437.488 512,437.488 "/> <rect x="100.848" y="341.28" style="fill:#AFAFAF;" width="314.192" height="16"/> <rect y="437.488" style="fill:#333333;" width="512" height="16"/> <rect x="220.656" y="376.512" style="fill:#AFAFAF;" width="74.56" height="16"/> <g style="opacity:0.4;"> <polygon style="fill:#FFFFFF;" points="503.072,421.488 8.928,421.488 0,437.488 512,437.488 "/> </g> <path style="fill:#E73B37;" d="M292.88,260.064c-13.328,7.024-26.912,9.696-43.152,9.696c-39.76,0-73.44-29.088-73.44-75.632 c0-49.936,34.656-93.072,88.48-93.072c42.176,0,70.528,29.568,70.528,70.048c0,36.352-20.368,57.696-43.152,57.696 c-9.696,0-18.672-6.544-17.936-21.328h-0.976c-8.48,14.304-19.632,21.328-34.176,21.328c-14.064,0-26.176-11.392-26.176-30.544 c0-30.064,23.76-57.44,57.44-57.44c10.416,0,19.632,2.176,25.936,5.088l-8.24,43.872c-3.632,18.416-0.72,26.912,7.264,27.152 c12.368,0.24,26.176-16.24,26.176-44.352c0-35.152-21.088-60.352-58.656-60.352c-39.504,0-72.72,31.264-72.72,80.48 c0,40.48,26.416,65.44,62.288,65.44c13.824,0,26.656-2.912,36.608-8.48L292.88,260.064z M279.552,155.344 c-2.416-0.72-6.544-1.696-12.112-1.696c-21.328,0-38.544,20.112-38.544,43.632c0,10.672,5.328,18.416,16,18.416 c14.064,0,26.912-17.936,29.568-32.96L279.552,155.344z"/> </g>
</svg>